<?xml version="1.0" encoding="UTF-8" standalone="no"?>
<!-- Generator: Adobe Illustrator 23.0.1, SVG Export Plug-In . SVG Version: 6.00 Build 0)  -->

<svg
   version="1.1"
   x="0px"
   y="0px"
   viewBox="0 0 512 512"
   style="enable-background:new 0 0 512 512;"
   xml:space="preserve"
   id="svg10"
   sodipodi:docname="video.svg"
   inkscape:version="1.1.2 (0a00cf5339, 2022-02-04)"
   xmlns:inkscape="http://www.inkscape.org/namespaces/inkscape"
   xmlns:sodipodi="http://sodipodi.sourceforge.net/DTD/sodipodi-0.dtd"
   xmlns="http://www.w3.org/2000/svg"
   xmlns:svg="http://www.w3.org/2000/svg"><defs
   id="defs14" /><sodipodi:namedview
   id="namedview12"
   pagecolor="#ffffff"
   bordercolor="#666666"
   borderopacity="1.0"
   inkscape:pageshadow="2"
   inkscape:pageopacity="0.0"
   inkscape:pagecheckerboard="0"
   showgrid="false"
   inkscape:zoom="1.6210938"
   inkscape:cx="256"
   inkscape:cy="256"
   inkscape:window-width="1920"
   inkscape:window-height="1048"
   inkscape:window-x="0"
   inkscape:window-y="0"
   inkscape:window-maximized="1"
   inkscape:current-layer="svg10" />
<style
   type="text/css"
   id="style2">
	.st0{fill:#333333;}
	.st1{fill:none;stroke:#333333;stroke-width:32;stroke-linecap:round;stroke-linejoin:round;stroke-miterlimit:10;}
</style>
<g
   id="Layer_1"
   transform="matrix(0.33333333,0,0,0.33333333,170.66333,170.67)">
</g>
<g
   id="Layer_2"
   transform="matrix(0.33333333,0,0,0.33333333,170.66333,170.67)">
	<g
   id="g7">
		<path
   class="st0"
   d="m 459.94,153.39 c -3.51,-18.17 -21.02,-33.94 -39.34,-36.01 -109.67,-10.3 -219.54,-10.3 -329.21,0 -18.31,2.07 -35.82,17.84 -39.34,36.01 -11.41,68.53 -11.41,136.7 0,205.23 3.51,18.17 21.02,33.94 39.34,36.01 109.67,10.3 219.54,10.3 329.21,0 18.31,-2.07 35.82,-17.84 39.34,-36.01 11.41,-68.53 11.41,-136.7 0,-205.23 z M 304.67,275.7 230.08,318.77 c -15.17,8.76 -34.12,-2.19 -34.12,-19.7 v -86.13 c 0,-17.51 18.96,-28.46 34.12,-19.7 l 74.59,43.07 c 15.17,8.75 15.17,30.63 0,39.39 z"
   id="path5" />
	</g>
</g>
</svg>
