<?xml version="1.0" encoding="UTF-8" standalone="no"?>
<!-- Generator: Adobe Illustrator 23.0.1, SVG Export Plug-In . SVG Version: 6.00 Build 0)  -->

<svg
   version="1.1"
   x="0px"
   y="0px"
   viewBox="0 0 512 512"
   style="enable-background:new 0 0 512 512;"
   xml:space="preserve"
   id="svg20"
   sodipodi:docname="video-spinner.svg"
   inkscape:version="1.1.2 (0a00cf5339, 2022-02-04)"
   xmlns:inkscape="http://www.inkscape.org/namespaces/inkscape"
   xmlns:sodipodi="http://sodipodi.sourceforge.net/DTD/sodipodi-0.dtd"
   xmlns="http://www.w3.org/2000/svg"
   xmlns:svg="http://www.w3.org/2000/svg"><defs
   id="defs24" /><sodipodi:namedview
   id="namedview22"
   pagecolor="#ffffff"
   bordercolor="#666666"
   borderopacity="1.0"
   inkscape:pageshadow="2"
   inkscape:pageopacity="0.0"
   inkscape:pagecheckerboard="0"
   showgrid="false"
   inkscape:zoom="1.6210938"
   inkscape:cx="256.61686"
   inkscape:cy="255.99999"
   inkscape:window-width="1920"
   inkscape:window-height="1048"
   inkscape:window-x="0"
   inkscape:window-y="0"
   inkscape:window-maximized="1"
   inkscape:current-layer="Layer_2" />
<style
   type="text/css"
   id="style2">
	.st0{fill:#333333;}
	.st1{fill:none;stroke:#333333;stroke-width:32;stroke-linecap:round;stroke-linejoin:round;stroke-miterlimit:10;}
</style>
<g
   id="Layer_1">
</g>
<g
   id="Layer_2">
	<g
   id="g17"
   transform="matrix(-1,0,0,1,512.77207,0.01)">
		<g
   id="g7">

		</g>
		<g
   id="g11">
			<path
   class="st0"
   d="m 82.95,272.41 c 3.82,0 7.53,-1.53 10.23,-4.23 l 21.23,-21.23 c 4.74,-4.74 6.4,-11.92 3.73,-18.06 -2.73,-6.29 -8.88,-8.95 -18.84,-7.57 l -0.27,0.27 c 15.78,-71.56 79.7,-125.27 155.94,-125.27 60.72,0 115.41,33.72 142.73,87.99 3.58,7.11 12.24,9.97 19.34,6.39 7.11,-3.58 9.97,-12.24 6.39,-19.34 C 407.96,140.63 384.38,114.7 355.21,96.35 325.23,77.47 290.57,67.5 254.98,67.5 c -93,0 -170.48,67.71 -185.75,156.41 -5.38,-4.77 -13.59,-5.18 -19.13,-0.44 -6.3,5.39 -6.75,14.88 -1.13,20.84 0.23,0.24 5.69,6.03 11.41,11.93 3.41,3.51 6.2,6.33 8.3,8.38 4.23,4.13 7.88,7.69 14.07,7.78 0.06,0.01 0.13,0.01 0.2,0.01 z"
   id="path9" />
		</g>
		<g
   id="g15">
			<path
   class="st0"
   d="m 464.28,247.82 -26.5,-26.5 c -2.75,-2.75 -6.57,-4.3 -10.44,-4.23 -2.33,0.03 -4.29,0.56 -6.07,1.42 -0.26,0.12 -0.51,0.26 -0.76,0.4 -0.04,0.02 -0.08,0.04 -0.12,0.06 -0.59,0.33 -1.16,0.68 -1.69,1.08 -1.88,1.34 -3.6,3.03 -5.44,4.82 -2.1,2.05 -4.89,4.87 -8.3,8.38 -5.72,5.9 -11.18,11.68 -11.41,11.93 -5.46,5.79 -5.19,14.91 0.6,20.36 5.75,5.42 14.77,5.18 20.24,-0.48 -4.72,83.85 -74.42,150.62 -159.43,150.62 -70.52,0 -131.86,-45.23 -152.62,-112.55 -2.35,-7.6 -10.41,-11.86 -18.01,-9.52 -7.6,2.34 -11.86,10.41 -9.52,18.01 11.62,37.68 35.48,71.52 67.19,95.28 32.8,24.59 71.86,37.58 112.96,37.58 100.11,0 182.23,-78.45 188.14,-177.1 l 0.79,0.79 c 2.81,2.81 6.5,4.22 10.18,4.22 3.69,0 7.37,-1.41 10.18,-4.22 5.66,-5.6 5.66,-14.72 0.03,-20.35 z"
   id="path13" />
		</g>
	</g>
</g>
</svg>
